<svg width="60" height="60" viewBox="0 0 60 60" fill="none" xmlns="http://www.w3.org/2000/svg">
<path fill-rule="evenodd" clip-rule="evenodd" d="M15 37.4999C14.5027 37.4999 14.0258 37.6975 13.6742 38.0491C13.3225 38.4008 13.125 38.8777 13.125 39.3749C13.125 39.8722 13.3225 40.3491 13.6742 40.7007C14.0258 41.0524 14.5027 41.2499 15 41.2499H30C30.4973 41.2499 30.9742 41.0524 31.3258 40.7007C31.6774 40.3491 31.875 39.8722 31.875 39.3749C31.875 38.8777 31.6774 38.4008 31.3258 38.0491C30.9742 37.6975 30.4973 37.4999 30 37.4999H15Z" fill="#F7D505"/>
<path fill-rule="evenodd" clip-rule="evenodd" d="M18.75 31.8749C18.2527 31.8749 17.7758 32.0725 17.4242 32.4241C17.0725 32.7758 16.875 33.2527 16.875 33.7499C16.875 34.2472 17.0725 34.7241 17.4242 35.0757C17.7758 35.4274 18.2527 35.6249 18.75 35.6249H30C30.4973 35.6249 30.9742 35.4274 31.3258 35.0757C31.6774 34.7241 31.875 34.2472 31.875 33.7499C31.875 33.2527 31.6774 32.7758 31.3258 32.4241C30.9742 32.0725 30.4973 31.8749 30 31.8749H18.75Z" fill="#F7D505"/>
<path fill-rule="evenodd" clip-rule="evenodd" d="M24.375 26.25C23.8777 26.25 23.4008 26.4476 23.0492 26.7992C22.6975 27.1508 22.5 27.6277 22.5 28.125C22.5 28.6223 22.6975 29.0992 23.0492 29.4508C23.4008 29.8024 23.8777 30 24.375 30H30C30.4973 30 30.9742 29.8024 31.3258 29.4508C31.6774 29.0992 31.875 28.6223 31.875 28.125C31.875 27.6277 31.6774 27.1508 31.3258 26.7992C30.9742 26.4476 30.4973 26.25 30 26.25H24.375Z" fill="#F7D505"/>
<path fill-rule="evenodd" clip-rule="evenodd" d="M9.375 16.9006C8.87772 16.9006 8.4008 17.0981 8.04917 17.4498C7.69754 17.8014 7.5 18.2784 7.5 18.7756C7.5 19.2729 7.69754 19.7498 8.04917 20.1014C8.4008 20.4531 8.87772 20.6506 9.375 20.6506H16.875C17.3723 20.6506 17.8492 20.4531 18.2008 20.1014C18.5524 19.7498 18.75 19.2729 18.75 18.7756C18.75 18.2784 18.5524 17.8014 18.2008 17.4498C17.8492 17.0981 17.3723 16.9006 16.875 16.9006H9.375Z" fill="#F7D505"/>
<path fill-rule="evenodd" clip-rule="evenodd" d="M13.125 7.52563C6.93401 7.52563 1.875 12.5847 1.875 18.7756C1.875 22.0906 3.3269 25.0805 5.625 27.1435V48.75C5.62505 49.2472 5.82261 49.7241 6.17423 50.0758C6.52585 50.4274 7.00273 50.6249 7.49999 50.625H11.5759C12.3553 52.8007 14.4462 54.375 16.875 54.375C19.3038 54.375 21.3946 52.8007 22.1741 50.625H35.625H39.7009C40.4803 52.8007 42.5712 54.375 45 54.375C47.4287 54.375 49.5196 52.8007 50.299 50.625H56.2499C56.7472 50.6249 57.2241 50.4274 57.5757 50.0758C57.9273 49.7241 58.1249 49.2472 58.1249 48.75V35.625C58.1253 35.1991 57.9806 34.7858 57.7148 34.4531L50.2148 25.0781C50.039 24.8586 49.8161 24.6813 49.5625 24.5596C49.3089 24.4379 49.0312 24.3748 48.75 24.375H37.5V20.625C37.4999 20.1277 37.3024 19.6508 36.9507 19.2992C36.5991 18.9476 36.1222 18.75 35.625 18.75H24.375C24.3609 12.5707 19.3074 7.52563 13.125 7.52563ZM13.125 11.2756C17.2893 11.2756 20.625 14.6113 20.625 18.7756C20.625 22.94 17.2893 26.2756 13.125 26.2756C11.567 26.2756 10.1229 25.811 8.92822 25.0085C8.75036 24.7964 8.52774 24.6263 8.27636 24.5105C6.65221 23.1384 5.625 21.085 5.625 18.7756C5.625 14.6113 8.96066 11.2756 13.125 11.2756ZM23.7341 22.5H33.75V46.875H22.1741C21.3946 44.6992 19.3038 43.125 16.875 43.125C14.4462 43.125 12.3553 44.6992 11.5759 46.875H9.37499V29.3774C10.5492 29.7955 11.8113 30.0256 13.125 30.0256C18.0116 30.0256 22.1891 26.8725 23.7341 22.5ZM37.5 28.125H41.25V37.5C41.25 37.9972 41.4476 38.4741 41.7992 38.8258C42.1508 39.1774 42.6277 39.3749 43.125 39.375H54.3749V46.875H50.299C49.5196 44.6992 47.4287 43.125 45 43.125C42.5712 43.125 40.4803 44.6992 39.7009 46.875H37.5V28.125ZM45 28.125H47.8491L53.8476 35.625H45V28.125ZM16.875 46.875C17.9327 46.875 18.75 47.6922 18.75 48.75C18.75 49.8077 17.9327 50.625 16.875 50.625C15.8172 50.625 15 49.8077 15 48.75C15 47.6922 15.8172 46.875 16.875 46.875ZM45 46.875C46.0577 46.875 46.875 47.6922 46.875 48.75C46.875 49.8077 46.0577 50.625 45 50.625C43.9422 50.625 43.125 49.8077 43.125 48.75C43.125 47.6922 43.9422 46.875 45 46.875Z" fill="#F7D505"/>
</svg>
